<?xml version="1.0" standalone="no"?>
<!DOCTYPE svg PUBLIC "-//W3C//DTD SVG 20010904//EN"
 "http://www.w3.org/TR/2001/REC-SVG-20010904/DTD/svg10.dtd">
<svg version="1.0" xmlns="http://www.w3.org/2000/svg"
 width="150.000000pt" height="150.000000pt" viewBox="0 0 150.000000 150.000000"
 preserveAspectRatio="xMidYMid meet">
<metadata>
Created by potrace 1.11, written by Peter Selinger 2001-2013
</metadata>
<g transform="translate(0.000000,150.000000) scale(0.100000,-0.100000)"
fill="#000000" stroke="none">
<path d="M883 1431 c-150 -51 -254 -196 -288 -401 -3 -19 -10 -53 -15 -75 -5
-22 -11 -60 -15 -85 -4 -25 -10 -63 -15 -85 -10 -44 -12 -58 -34 -195 -9 -52
-18 -105 -20 -116 -2 -12 -7 -39 -10 -60 -25 -158 -50 -230 -94 -264 -13 -11
-34 -20 -46 -21 -18 -1 -18 -2 4 -8 35 -10 98 5 142 34 50 33 110 115 153 208
36 78 88 265 100 360 4 28 8 54 10 57 2 3 7 33 10 65 4 33 9 63 11 66 1 3 6
28 10 55 3 27 8 52 10 56 3 4 29 6 59 6 62 -2 70 3 78 50 l7 32 -65 0 c-40 0
-65 4 -65 11 0 35 43 216 54 228 16 16 69 7 87 -15 12 -15 34 -20 25 -6 -8 14
31 89 55 106 23 16 22 16 -36 16 -33 -1 -83 -9 -112 -19z"/>
<path d="M1130 1408 c-14 -7 -33 -30 -44 -52 -16 -32 -17 -44 -7 -77 19 -64
81 -88 151 -59 62 26 77 121 26 169 -29 27 -92 37 -126 19z"/>
<path d="M1044 1063 c-4 -27 -8 -50 -9 -53 -1 -3 -5 -23 -10 -45 -4 -22 -21
-101 -37 -175 -47 -217 -37 -308 40 -353 96 -56 273 28 353 168 35 61 35 65 4
65 -17 0 -29 -9 -39 -29 -57 -110 -190 -181 -206 -111 -3 14 13 119 37 235 43
213 46 227 58 303 l8 42 -96 0 -95 0 -8 -47z"/>
<path d="M271 1087 c-80 -41 -85 -153 -8 -190 57 -28 127 -2 152 55 17 41 4
85 -35 121 -33 29 -70 34 -109 14z"/>
<path d="M181 743 c-6 -27 -13 -57 -15 -68 -2 -11 -20 -102 -40 -202 -39 -195
-42 -228 -26 -285 34 -122 193 -175 330 -112 59 27 66 39 12 20 -64 -23 -121
-10 -153 35 -23 33 -26 68 -10 144 19 96 83 420 87 445 2 14 6 35 9 48 5 22 4
22 -89 22 l-94 0 -11 -47z"/>
</g>
</svg>
